<svg width="50" height="42" viewBox="0 0 50 42" fill="none" xmlns="http://www.w3.org/2000/svg">
<path id="Vector" fill-rule="evenodd" clip-rule="evenodd" d="M4.74196 0.549327C3.65718 -0.183109 1.8984 -0.183109 0.813625 0.549327C-0.271208 1.28172 -0.271208 2.46918 0.813625 3.20158L23.0358 18.2051C24.1206 18.9376 25.8794 18.9376 26.9642 18.2051L49.1867 3.20158C50.2711 2.46918 50.2711 1.28172 49.1867 0.549327C48.1017 -0.183109 46.3428 -0.183109 45.2578 0.549327L25 14.2267L4.74196 0.549327ZM4.74196 23.0546C3.65718 22.3222 1.8984 22.3222 0.813625 23.0546C-0.271208 23.787 -0.271208 24.9745 0.813625 25.7069L23.0358 40.7106C24.1206 41.4428 25.8794 41.4428 26.9642 40.7106L49.1867 25.7069C50.2711 24.9745 50.2711 23.787 49.1867 23.0546C48.1017 22.3222 46.3428 22.3222 45.2578 23.0546L25 36.7321L4.74196 23.0546Z" fill="black"/>
</svg>
