<svg width="25" height="22" viewBox="0 0 25 22" fill="none" xmlns="http://www.w3.org/2000/svg">
<g id="Backlog count">
<path id="Ellipse 1" d="M24.1838 11C24.1838 17.0751 18.7701 22 12.0919 22C5.41374 22 0 17.0751 0 11C0 4.92487 5.41374 0 12.0919 0C18.7701 0 24.1838 4.92487 24.1838 11Z" fill="#58D4FB"/>
<path id="2" d="M7.91832 16.1V14.3273L12.0604 10.4921C12.4126 10.1512 12.7081 9.84434 12.9467 9.57161C13.1892 9.29888 13.3729 9.03184 13.4979 8.77047C13.6229 8.50532 13.6854 8.21934 13.6854 7.91252C13.6854 7.57161 13.6077 7.27805 13.4524 7.03184C13.2971 6.78184 13.085 6.59055 12.8161 6.45797C12.5471 6.32161 12.2422 6.25343 11.9013 6.25343C11.5452 6.25343 11.2346 6.3254 10.9695 6.46934C10.7043 6.61328 10.4998 6.81972 10.3558 7.08866C10.2119 7.3576 10.1399 7.67767 10.1399 8.04888H7.80469C7.80469 7.28752 7.97704 6.62654 8.32173 6.06593C8.66643 5.50532 9.14938 5.07161 9.7706 4.76479C10.3918 4.45797 11.1077 4.30457 11.9183 4.30457C12.7517 4.30457 13.477 4.45229 14.0945 4.74775C14.7157 5.03941 15.1986 5.44472 15.5433 5.96366C15.888 6.4826 16.0604 7.07729 16.0604 7.74775C16.0604 8.18714 15.9732 8.62085 15.799 9.04888C15.6286 9.47691 15.3236 9.95229 14.8842 10.475C14.4448 10.994 13.8255 11.6171 13.0263 12.3443L11.3274 14.0091V14.0887H16.2138V16.1H7.91832Z" fill="white"/>
</g>
</svg>
