<svg width="25" height="22" viewBox="0 0 25 22" fill="none" xmlns="http://www.w3.org/2000/svg">
<g id="Backlog count">
<path id="Ellipse 1" d="M24.1838 11C24.1838 17.0751 18.7701 22 12.0919 22C5.41374 22 0 17.0751 0 11C0 4.92487 5.41374 0 12.0919 0C18.7701 0 24.1838 4.92487 24.1838 11Z" fill="#06C819"/>
<path id="3" d="M11.9851 16.2591C11.1366 16.2591 10.3809 16.1133 9.71804 15.8216C9.05895 15.5262 8.53812 15.1209 8.15554 14.6057C7.77675 14.0868 7.58168 13.4883 7.57031 12.8102H10.0476C10.0627 13.0943 10.1555 13.3443 10.326 13.5602C10.5002 13.7724 10.7313 13.9371 11.0192 14.0546C11.3071 14.172 11.6309 14.2307 11.9908 14.2307C12.3658 14.2307 12.6972 14.1644 12.9851 14.0318C13.273 13.8993 13.4983 13.7156 13.6612 13.4807C13.8241 13.2459 13.9055 12.975 13.9055 12.6682C13.9055 12.3576 13.8184 12.083 13.6442 11.8443C13.4737 11.6019 13.2275 11.4125 12.9055 11.2762C12.5874 11.1398 12.2086 11.0716 11.7692 11.0716H10.6839V9.26479H11.7692C12.1404 9.26479 12.468 9.2004 12.7521 9.07161C13.04 8.94282 13.2635 8.76479 13.4226 8.53752C13.5817 8.30646 13.6612 8.03752 13.6612 7.7307C13.6612 7.43904 13.5911 7.18335 13.451 6.96366C13.3146 6.74017 13.1214 6.56593 12.8714 6.44093C12.6252 6.31593 12.3374 6.25343 12.0078 6.25343C11.6745 6.25343 11.3696 6.31404 11.093 6.43525C10.8165 6.55267 10.5949 6.72123 10.4283 6.94093C10.2616 7.16063 10.1726 7.4182 10.1612 7.71366H7.80327C7.81463 7.0432 8.00592 6.45229 8.37713 5.94093C8.74834 5.42957 9.24834 5.02994 9.87713 4.74207C10.5097 4.4504 11.2237 4.30457 12.0192 4.30457C12.8222 4.30457 13.5249 4.4504 14.1271 4.74207C14.7294 5.03373 15.1972 5.42767 15.5305 5.92388C15.8677 6.41631 16.0343 6.96934 16.0305 7.58297C16.0343 8.23449 15.8317 8.77805 15.4226 9.21366C15.0173 9.64926 14.4889 9.92578 13.8374 10.0432V10.1341C14.6934 10.244 15.3449 10.5413 15.7919 11.0262C16.2427 11.5072 16.4661 12.1095 16.4624 12.833C16.4661 13.4959 16.2749 14.0849 15.8885 14.6C15.5059 15.1152 14.9775 15.5205 14.3033 15.8159C13.629 16.1114 12.8563 16.2591 11.9851 16.2591Z" fill="white"/>
</g>
</svg>
