<svg width="34" height="32" viewBox="0 0 34 32" fill="none" xmlns="http://www.w3.org/2000/svg">
<path id="Vector" d="M34 31.6621H30.9091V27.7914C30.9066 26.081 30.0917 24.4413 28.6431 23.2319C27.1945 22.0226 25.2305 21.3422 23.1818 21.3402H13.9091C11.8604 21.3422 9.89641 22.0226 8.44779 23.2319C6.99918 24.4413 6.18427 26.081 6.18182 27.7914V31.6621H3.09091V27.7914C3.09418 25.3969 4.235 23.1012 6.2631 21.408C8.29119 19.7148 11.0409 18.7624 13.9091 18.7597H23.1818C26.05 18.7624 28.7997 19.7148 30.8278 21.408C32.8559 23.1012 33.9967 25.3969 34 27.7914V31.6621ZM1.54545 0.696289C1.13557 0.696289 0.742482 0.832225 0.452653 1.07419C0.162825 1.31616 0 1.64434 0 1.98653V13.5987H3.09091V1.98653C3.09091 1.64434 2.92808 1.31616 2.63826 1.07419C2.34843 0.832225 1.95533 0.696289 1.54545 0.696289Z" fill="#545454"/>
</svg>
