<svg width="37" height="22" viewBox="0 0 37 22" fill="none" xmlns="http://www.w3.org/2000/svg">
<path id="Vector" d="M0 0.837891V3.45325H7.70833V12.607C7.70833 15.0347 8.84531 17.363 10.8691 19.0797C12.893 20.7963 15.6379 21.7607 18.5 21.7607C21.3621 21.7607 24.107 20.7963 26.1309 19.0797C28.1547 17.363 29.2917 15.0347 29.2917 12.607V3.45325H37V0.837891H0ZM10.7917 3.45325H26.2083V7.37628H10.7917V3.45325ZM18.5 19.1454C16.4556 19.1454 14.495 18.4565 13.0494 17.2303C11.6038 16.0041 10.7917 14.3411 10.7917 12.607V9.99164H26.2083V12.607C26.2083 14.3411 25.3962 16.0041 23.9506 17.2303C22.505 18.4565 20.5444 19.1454 18.5 19.1454Z" fill="#545454"/>
</svg>
