<svg id="Layer_1" data-name="Layer 1" xmlns="http://www.w3.org/2000/svg" xmlns:xlink="http://www.w3.org/1999/xlink" viewBox="0 0 225 142"><defs><style>.cls-1{fill:none;}.cls-2{fill:#002d43;}.cls-3{clip-path:url(#clip-path);}</style><clipPath id="clip-path"><rect class="cls-1" x="55.16" y="2.6" width="114.52" height="79.45"/></clipPath></defs><path class="cls-2" d="M5,126.9a9.7,9.7,0,0,1-2.54-.29,4.86,4.86,0,0,1-1.68-.79,2.9,2.9,0,0,1-.93-1.15,3.21,3.21,0,0,1-.29-1.37,3.85,3.85,0,0,1,.17-1.19,5.74,5.74,0,0,1,.43-1.06,6.79,6.79,0,0,1,.61-1c.22-.3.46-.58.7-.86l.82.29a7.74,7.74,0,0,0-.39,1.26A6.27,6.27,0,0,0,1.76,122a2.48,2.48,0,0,0,1,2.08,4.38,4.38,0,0,0,2.71.77,13.51,13.51,0,0,0,3-.31,6.58,6.58,0,0,0,2.36-1,2.89,2.89,0,0,0,.94-1.34,5.49,5.49,0,0,0,.31-1.9,2.11,2.11,0,0,0-.79-1.82,4.66,4.66,0,0,0-2.71-.6l-2.64,0a9,9,0,0,1-4.14-.76,2.55,2.55,0,0,1-1.3-2.41,2.59,2.59,0,0,1,.21-1,5.19,5.19,0,0,1,.53-1,10.14,10.14,0,0,1,.73-.92A10.13,10.13,0,0,1,2.8,111a6.12,6.12,0,0,1-2.15-2.17,6.85,6.85,0,0,1-.85-3.56,7.76,7.76,0,0,1,.5-2.84,6,6,0,0,1,3.49-3.5,7.12,7.12,0,0,1,2.64-.48,13.1,13.1,0,0,1,2.1.15,13.29,13.29,0,0,1,1.79.41c.78,0,1.6-.1,2.48-.19a21.59,21.59,0,0,0,2.31-.37l-.36,1.67a7.45,7.45,0,0,1-1.38.32,10.68,10.68,0,0,1-1.53.12,7.87,7.87,0,0,1,.71,1.74,10,10,0,0,1,.29,2.63,7.08,7.08,0,0,1-.55,2.86,5.93,5.93,0,0,1-1.46,2,6.1,6.1,0,0,1-2.18,1.25,8.33,8.33,0,0,1-2.66.42c-.32,0-.7,0-1.15,0a4,4,0,0,1-1-.15,5.89,5.89,0,0,0-.37,1,4.58,4.58,0,0,0-.19,1.26,1,1,0,0,0,.71,1,5.21,5.21,0,0,0,1.73.26H9.26a12.29,12.29,0,0,1,2.72.26,4.26,4.26,0,0,1,1.77.8,2.88,2.88,0,0,1,1,1.36,5.92,5.92,0,0,1-.46,4.72,8.19,8.19,0,0,1-2.09,2.46A11.08,11.08,0,0,1,9,126.21,11.29,11.29,0,0,1,5,126.9Zm1.11-17.1a4.73,4.73,0,0,0,2.66-.67,2.35,2.35,0,0,0,.76-1.33A10.86,10.86,0,0,0,9.79,105a7.09,7.09,0,0,0-.24-1.89,4.5,4.5,0,0,0-.72-1.51,3.36,3.36,0,0,0-1.13-1,3.1,3.1,0,0,0-1.49-.37,4.07,4.07,0,0,0-2.39.61c-.66.48-1,1.9-1,4.25a6.54,6.54,0,0,0,.24,1.78,5.21,5.21,0,0,0,.67,1.51,3.86,3.86,0,0,0,1,1.06A2.37,2.37,0,0,0,6.09,109.8Z"/><path class="cls-2" d="M25.12,98.46a7.38,7.38,0,0,1,2.13.32,5.2,5.2,0,0,1,1.89,1,6.24,6.24,0,0,1,1.5,2,10.19,10.19,0,0,1,1,3v.2a2.24,2.24,0,0,1-.59.48,4.43,4.43,0,0,1-1,.39,13.88,13.88,0,0,1-1.49.3,20.77,20.77,0,0,1-2.12.2l-5.36.37v1a6.86,6.86,0,0,0,1,4.25,3.73,3.73,0,0,0,3.14,1.33,9.43,9.43,0,0,0,1.8-.17c.62-.11,1.21-.25,1.78-.41s1.07-.32,1.53-.49a11.23,11.23,0,0,0,1.08-.45l.41.94c-.47.31-1,.63-1.57,1a16.29,16.29,0,0,1-1.87.93,14.11,14.11,0,0,1-2.11.7,9,9,0,0,1-2.26.28,7.26,7.26,0,0,1-2.55-.44,5.05,5.05,0,0,1-2-1.4,6.81,6.81,0,0,1-1.37-2.52,12.68,12.68,0,0,1-.49-3.79,13.38,13.38,0,0,1,.58-4.23,7.15,7.15,0,0,1,1.59-2.8A6,6,0,0,1,22.15,99,8.94,8.94,0,0,1,25.12,98.46Zm-2.73,2.4a1.76,1.76,0,0,0-.5.61,5.42,5.42,0,0,0-.4,1,13.14,13.14,0,0,0-.28,1.29,9.73,9.73,0,0,0-.1,1.43l6.91-.29a14.45,14.45,0,0,0-.35-1.66,5.5,5.5,0,0,0-.63-1.48,3.42,3.42,0,0,0-1-1.07,2.63,2.63,0,0,0-1.48-.41,5.62,5.62,0,0,0-1.15.12A2.82,2.82,0,0,0,22.39,100.86Z"/><path class="cls-2" d="M42.75,98.46a7.26,7.26,0,0,1,2.12.32,5.16,5.16,0,0,1,1.9,1,6.55,6.55,0,0,1,1.5,2,10.19,10.19,0,0,1,1,3v.2a2.3,2.3,0,0,1-.6.48,4.24,4.24,0,0,1-1,.39,13.16,13.16,0,0,1-1.48.3,21.06,21.06,0,0,1-2.12.2l-5.37.37v1a6.93,6.93,0,0,0,1,4.25,3.75,3.75,0,0,0,3.15,1.33,9.43,9.43,0,0,0,1.8-.17c.62-.11,1.21-.25,1.78-.41s1.07-.32,1.53-.49a11.23,11.23,0,0,0,1.08-.45l.41.94c-.47.31-1,.63-1.57,1a15.66,15.66,0,0,1-1.88.93,14.37,14.37,0,0,1-2.1.7,9,9,0,0,1-2.26.28,7.26,7.26,0,0,1-2.55-.44,5,5,0,0,1-2-1.4,6.8,6.8,0,0,1-1.36-2.52,12.66,12.66,0,0,1-.5-3.79,13.67,13.67,0,0,1,.58-4.23,7.29,7.29,0,0,1,1.6-2.8A5.93,5.93,0,0,1,39.77,99,9,9,0,0,1,42.75,98.46ZM40,100.86a1.87,1.87,0,0,0-.49.61,4.82,4.82,0,0,0-.4,1,10.77,10.77,0,0,0-.28,1.29,9.73,9.73,0,0,0-.11,1.43l6.92-.29a14.45,14.45,0,0,0-.35-1.66,6.22,6.22,0,0,0-.63-1.48,3.45,3.45,0,0,0-1-1.07,2.57,2.57,0,0,0-1.47-.41,5.54,5.54,0,0,0-1.15.12A2.87,2.87,0,0,0,40,100.86Z"/><path class="cls-2" d="M57.13,115.37H53.87V88.24l3.26-.83v17c0,.2,0,.41,0,.62s0,.43,0,.62,0,.34,0,.44c.44-.5.91-1,1.42-1.59l1.5-1.63,1.4-1.49c.44-.46.83-.84,1.15-1.15A8.87,8.87,0,0,1,64.06,99a3.65,3.65,0,0,1,1.83-.41c.24,0,.51,0,.83.05a1.91,1.91,0,0,1,.69.17v1h-.1a3.82,3.82,0,0,0-1,.11,4,4,0,0,0-.87.32,5.7,5.7,0,0,0-.86.56c-.29.22-.6.49-.94.8-.16.14-.4.37-.72.7s-.65.65-1,1l-1.24,1.26c.28.43.59,1,.92,1.6s.71,1.31,1.1,2,.82,1.41,1.26,2.11a15.57,15.57,0,0,0,1.4,1.88,7.66,7.66,0,0,0,1.53,1.37,2.94,2.94,0,0,0,1.63.52h.24v1.09a6.82,6.82,0,0,1-1.26.31,8.54,8.54,0,0,1-1.4.12,3.62,3.62,0,0,1-2.3-.78,9.57,9.57,0,0,1-1.86-2A26.31,26.31,0,0,1,60.3,110c-.55-1-1.14-2.11-1.79-3.15l-1.38,1.37Z"/><path class="cls-2" d="M82.11,110.17a4.87,4.87,0,0,1-.42,2.11,5.47,5.47,0,0,1-1.13,1.56,9.73,9.73,0,0,1-.84.7,5.54,5.54,0,0,1-1,.6,6.72,6.72,0,0,1-1.31.39,8,8,0,0,1-1.62.15,11.64,11.64,0,0,1-3-.36,8.46,8.46,0,0,1-2.54-1.16l1-2.25q.52.33,1.14.66a13.59,13.59,0,0,0,1.27.61,9,9,0,0,0,1.36.44,5.81,5.81,0,0,0,1.45.17,7.13,7.13,0,0,0,1.41-.12,2.59,2.59,0,0,0,1-.41,2.09,2.09,0,0,0,.63-.76,3.4,3.4,0,0,0,.24-1.44,1.7,1.7,0,0,0-.66-1.38,6.11,6.11,0,0,0-1.63-.92c-.65-.25-1.36-.51-2.13-.77a11.08,11.08,0,0,1-2.12-1,5.36,5.36,0,0,1-1.64-1.46,3.78,3.78,0,0,1-.65-2.28,3.43,3.43,0,0,1,.44-1.78,6.38,6.38,0,0,1,1.09-1.37,6.18,6.18,0,0,1,4.3-1.67,19,19,0,0,1,2.19.14q1.14.14,2.19.3l-.49,2.39-1.06-.24-1.2-.22-1.18-.15a9.82,9.82,0,0,0-1-.06,8.37,8.37,0,0,0-1.5.1,2.33,2.33,0,0,0-.82.33,1.15,1.15,0,0,0-.4.55,2.63,2.63,0,0,0-.13.93,1.5,1.5,0,0,0,.65,1.25,6.7,6.7,0,0,0,1.65.87c.66.26,1.37.52,2.12.79a12.21,12.21,0,0,1,2.13,1,5.73,5.73,0,0,1,1.65,1.48A3.71,3.71,0,0,1,82.11,110.17Z"/><path class="cls-2" d="M91.91,115.13a.9.9,0,0,1-.07-.27,1.31,1.31,0,0,1,0-.39,6.68,6.68,0,0,1,.14-.66l.19-.71.21-.79c.16-.58.36-1.32.62-2.21l1.28-4.57-.42-.11a31.51,31.51,0,0,0-6.34,0,20.52,20.52,0,0,1-3.81.07l-.65-.16a1.33,1.33,0,0,1-1.12-1.2,1.36,1.36,0,0,1,0-.82l0-.12a8.43,8.43,0,0,1,.81-1.62c.43-.73,1.09-1.79,2-3.18l2.77-4.32,1.62-2.54c.38-.6.64-1,.79-1.29a3.72,3.72,0,0,0,.26-.56,3.91,3.91,0,0,1,.72-1.1,4.77,4.77,0,0,1,1-.91,1.43,1.43,0,0,1,.9-.09A1.3,1.3,0,0,1,93.83,89a.3.3,0,0,1,0,.13,6.3,6.3,0,0,1-.63,1.23q-.64,1.09-2.25,3.63Q89,97.06,87.38,99.55c-1.08,1.66-1.73,2.66-1.95,3l-.05.06a.14.14,0,0,0,0,.09l.07,0,.27,0c.16,0,.42,0,.78,0s.84,0,1.43,0a32.75,32.75,0,0,1,6.07.15l1,.16.26-.68c.07-.23.29-.9.63-2s.74-2.4,1.17-3.89.86-2.82,1.19-3.83a11.92,11.92,0,0,1,.62-1.69q.36-.61,1.29-.36a1.12,1.12,0,0,1,.73.62,2.28,2.28,0,0,1,.16,1.2c0,.22-.16.7-.35,1.43l-.35,1.28c-.39,1.47-.81,3-1.26,4.49s-.78,2.57-1,3.1l-.32.82.84.32c1,.35,1.39.89,1.19,1.62a1,1,0,0,1-.54.66,1.23,1.23,0,0,1-.91.08l-.44-.09a2.48,2.48,0,0,0-.45,0l-.41,0-1.32,3.87c-.36,1.11-.69,2.1-1,3s-.47,1.46-.54,1.71a3.23,3.23,0,0,1-.3.71,1,1,0,0,1-.43.32,1.32,1.32,0,0,1-.9.11h0A1.09,1.09,0,0,1,91.91,115.13Z"/><path class="cls-2" d="M103.35,115.47V88.34l3.27-.82v28Z"/><path class="cls-2" d="M119,98.57a7.38,7.38,0,0,1,2.13.32,5.17,5.17,0,0,1,1.9,1,6.37,6.37,0,0,1,1.49,2,10.19,10.19,0,0,1,1,3v.19a2.26,2.26,0,0,1-.59.49,4.46,4.46,0,0,1-1,.38,11.62,11.62,0,0,1-1.49.31c-.59.09-1.29.15-2.11.2l-5.37.36v1a6.91,6.91,0,0,0,1,4.26,3.73,3.73,0,0,0,3.14,1.33,10.32,10.32,0,0,0,1.8-.17c.62-.11,1.21-.25,1.78-.41s1.08-.33,1.53-.5a11.61,11.61,0,0,0,1.08-.44l.41.94c-.47.31-1,.63-1.57,1a18.09,18.09,0,0,1-1.87.93,15.35,15.35,0,0,1-2.11.7,9.39,9.39,0,0,1-2.26.28,7.26,7.26,0,0,1-2.55-.44,5.15,5.15,0,0,1-2-1.4,6.86,6.86,0,0,1-1.37-2.53,12.61,12.61,0,0,1-.49-3.78,13.38,13.38,0,0,1,.58-4.23,7.27,7.27,0,0,1,1.59-2.81,6.14,6.14,0,0,1,2.4-1.55A8.94,8.94,0,0,1,119,98.57ZM116.29,101a1.81,1.81,0,0,0-.5.62,5.56,5.56,0,0,0-.4,1,12.54,12.54,0,0,0-.28,1.29,9.63,9.63,0,0,0-.1,1.43l6.91-.29a14.45,14.45,0,0,0-.35-1.66,5.57,5.57,0,0,0-.63-1.49,3.38,3.38,0,0,0-1-1.06,2.6,2.6,0,0,0-1.48-.41,5.45,5.45,0,0,0-1.14.12A3,3,0,0,0,116.29,101Z"/><path class="cls-2" d="M143,113.76a7,7,0,0,0,1.72-.29v1c-.52.27-1.08.54-1.69.79a4.94,4.94,0,0,1-1.94.39,2.43,2.43,0,0,1-1-.18,1.89,1.89,0,0,1-.68-.49,2.88,2.88,0,0,1-.43-.66,5,5,0,0,1-.29-.73l-1.21.8a9.79,9.79,0,0,1-1.22.69,8.54,8.54,0,0,1-1.37.49,6.69,6.69,0,0,1-1.62.18,4.43,4.43,0,0,1-3.2-1.13,4.5,4.5,0,0,1-1.18-3.39,5.7,5.7,0,0,1,.36-2.12,3.44,3.44,0,0,1,1.12-1.52,5.14,5.14,0,0,1,2-.93,13.74,13.74,0,0,1,3-.37l3-.09v-2.93a3,3,0,0,0-.55-2,2.34,2.34,0,0,0-1.86-.64,9.6,9.6,0,0,0-2.3.35,18.56,18.56,0,0,0-2.66.91l-.58-1.55,1.63-.64c.57-.22,1.16-.41,1.75-.58a16,16,0,0,1,1.82-.41,10.15,10.15,0,0,1,1.81-.16,6.52,6.52,0,0,1,1.78.22,3.06,3.06,0,0,1,1.33.74,3.26,3.26,0,0,1,.82,1.37,7.17,7.17,0,0,1,.28,2.12v7.91C141.63,112.81,142.08,113.76,143,113.76Zm-4.52-1.24c0-.08,0-.54-.05-1.39s0-2,0-3.59a17.43,17.43,0,0,0-4,.34,3.8,3.8,0,0,0-1.66.68,1.86,1.86,0,0,0-.43.89,6.09,6.09,0,0,0-.13,1.36,4,4,0,0,0,.47,2.11,1.73,1.73,0,0,0,1.58.74,8.29,8.29,0,0,0,2.18-.27A8.73,8.73,0,0,0,138.46,112.52Z"/><path class="cls-2" d="M156.42,101.55l-1.25-.11c-.47,0-.91-.06-1.33-.06a3,3,0,0,0-.79.09,2.6,2.6,0,0,0-.63.3,4.38,4.38,0,0,0-.59.49l-.68.64v12.57h-3.26V98.93h2.73l.46,2.59h0c.17-.21.36-.44.55-.69s.39-.49.59-.71a7.57,7.57,0,0,1,.64-.63,3,3,0,0,1,.73-.46,4.81,4.81,0,0,1,1.47-.37,16.91,16.91,0,0,1,1.82-.09Z"/><path class="cls-2" d="M171.73,115.47V104a6.38,6.38,0,0,0-.1-1.15,2.41,2.41,0,0,0-.4-1,2.21,2.21,0,0,0-.85-.74,3.31,3.31,0,0,0-1.5-.29,6.11,6.11,0,0,0-1.3.15,12.37,12.37,0,0,0-1.39.36,10.42,10.42,0,0,0-1.35.51c-.44.19-.83.38-1.19.58v13.1h-3.26V98.93h2.73l.46,1.94h0l1.29-.72c.5-.26,1-.51,1.59-.74a12.56,12.56,0,0,1,1.76-.6,7.42,7.42,0,0,1,1.86-.24,6.11,6.11,0,0,1,2,.3,4.06,4.06,0,0,1,1.54.92,4.2,4.2,0,0,1,1,1.53,5.74,5.74,0,0,1,.36,2.14v12Z"/><path class="cls-2" d="M182.32,90.45l2.23,2.2-2.23,2.2-2.2-2.2Zm-1.6,25V98.93H184v16.54Z"/><path class="cls-2" d="M201.23,115.47V104a6.38,6.38,0,0,0-.1-1.15,2.55,2.55,0,0,0-.4-1,2.17,2.17,0,0,0-.86-.74,3.29,3.29,0,0,0-1.49-.29,6.11,6.11,0,0,0-1.3.15,12.37,12.37,0,0,0-1.39.36,9.89,9.89,0,0,0-1.35.51c-.44.19-.83.38-1.19.58v13.1h-3.26V98.93h2.73l.46,1.94h0l1.29-.72a16.82,16.82,0,0,1,1.59-.74,12.56,12.56,0,0,1,1.76-.6,7.3,7.3,0,0,1,1.86-.24,6.15,6.15,0,0,1,2,.3,4.06,4.06,0,0,1,1.54.92,4.33,4.33,0,0,1,1,1.53,5.74,5.74,0,0,1,.36,2.14v12Z"/><path class="cls-2" d="M214.41,127a9.7,9.7,0,0,1-2.54-.29,4.87,4.87,0,0,1-1.68-.79,2.9,2.9,0,0,1-.93-1.15,3.22,3.22,0,0,1-.29-1.38,3.78,3.78,0,0,1,.17-1.18,5.84,5.84,0,0,1,.43-1.07,7.3,7.3,0,0,1,.61-1,9.72,9.72,0,0,1,.7-.86l.82.29a7.45,7.45,0,0,0-.39,1.26,6.2,6.2,0,0,0-.12,1.26,2.48,2.48,0,0,0,1,2.08,4.37,4.37,0,0,0,2.7.77,13.51,13.51,0,0,0,3-.32,6.64,6.64,0,0,0,2.36-1,2.89,2.89,0,0,0,.94-1.34,5.53,5.53,0,0,0,.31-1.9,2.14,2.14,0,0,0-.79-1.83,4.75,4.75,0,0,0-2.71-.59l-2.64,0a9,9,0,0,1-4.14-.76,2.56,2.56,0,0,1-1.3-2.41,2.59,2.59,0,0,1,.21-1,4.45,4.45,0,0,1,.53-1,10.39,10.39,0,0,1,.72-.92c.27-.3.53-.57.79-.81a6.15,6.15,0,0,1-2.15-2.18,6.71,6.71,0,0,1-.85-3.55,7.73,7.73,0,0,1,.5-2.84,6,6,0,0,1,1.39-2.15,6.19,6.19,0,0,1,2.1-1.36,7.33,7.33,0,0,1,2.64-.47,13.1,13.1,0,0,1,2.1.15,11.92,11.92,0,0,1,1.79.41c.77,0,1.6-.1,2.48-.2a19.49,19.49,0,0,0,2.31-.36l-.37,1.67a7.59,7.59,0,0,1-1.37.31,10.68,10.68,0,0,1-1.53.12,7.69,7.69,0,0,1,.7,1.75,9.51,9.51,0,0,1,.29,2.63,7,7,0,0,1-.54,2.85,5.87,5.87,0,0,1-1.46,2.06,6.17,6.17,0,0,1-2.18,1.24,8.06,8.06,0,0,1-2.66.43c-.32,0-.7,0-1.15,0a3.5,3.5,0,0,1-1-.16,6.06,6.06,0,0,0-.37,1,4.23,4.23,0,0,0-.19,1.26,1,1,0,0,0,.71,1,4.91,4.91,0,0,0,1.73.27h3.56a12.35,12.35,0,0,1,2.72.25,4.39,4.39,0,0,1,1.77.8,3,3,0,0,1,1,1.37,6,6,0,0,1,.29,2,5.7,5.7,0,0,1-.75,2.75,8.37,8.37,0,0,1-2.09,2.47,11.47,11.47,0,0,1-3.18,1.78A11.33,11.33,0,0,1,214.41,127Zm1.11-17.1a4.67,4.67,0,0,0,2.66-.68,2.33,2.33,0,0,0,.76-1.33,10.78,10.78,0,0,0,.28-2.82,7.09,7.09,0,0,0-.24-1.89,4.7,4.7,0,0,0-.72-1.51,3.51,3.51,0,0,0-1.13-1,3.1,3.1,0,0,0-1.49-.36,4,4,0,0,0-2.39.61c-.67.48-1,1.9-1,4.25a6.6,6.6,0,0,0,.25,1.78,5.21,5.21,0,0,0,.67,1.51,3.69,3.69,0,0,0,1,1.05A2.3,2.3,0,0,0,215.52,109.91Z"/><path class="cls-2" d="M27.09,133a3.62,3.62,0,0,0,.84-.14v.5a8,8,0,0,1-.83.39,2.37,2.37,0,0,1-1,.19,1.14,1.14,0,0,1-.48-.09,1,1,0,0,1-.33-.23,1.15,1.15,0,0,1-.21-.33,2.63,2.63,0,0,1-.15-.35l-.59.39a4.24,4.24,0,0,1-.59.33,3.54,3.54,0,0,1-.67.24,3.24,3.24,0,0,1-.79.09,2.16,2.16,0,0,1-1.57-.55,2.21,2.21,0,0,1-.57-1.66,2.92,2.92,0,0,1,.17-1,1.79,1.79,0,0,1,.55-.75,2.54,2.54,0,0,1,1-.45,7.2,7.2,0,0,1,1.48-.18l1.45-.05v-1.43a1.47,1.47,0,0,0-.27-1,1.15,1.15,0,0,0-.91-.32,4.36,4.36,0,0,0-1.12.18,8.65,8.65,0,0,0-1.3.44l-.29-.76.8-.31a8.63,8.63,0,0,1,.86-.28,6.59,6.59,0,0,1,.88-.2,4.53,4.53,0,0,1,.89-.08,3.35,3.35,0,0,1,.87.1,1.79,1.79,0,0,1,.65.36,1.68,1.68,0,0,1,.4.68,3.37,3.37,0,0,1,.14,1v3.86C26.43,132.54,26.65,133,27.09,133Zm-2.21-.61s0-.26,0-.67,0-1,0-1.76a8.56,8.56,0,0,0-1.95.17,1.87,1.87,0,0,0-.81.33.87.87,0,0,0-.21.43,3.21,3.21,0,0,0-.07.67,2,2,0,0,0,.23,1,.87.87,0,0,0,.78.36,4,4,0,0,0,1.06-.13A4.76,4.76,0,0,0,24.88,132.39Z"/><path class="cls-2" d="M36.24,134.76a7.19,7.19,0,0,1-.17,1.64,5.15,5.15,0,0,1-.47,1.25,4.67,4.67,0,0,1-.72,1,10.31,10.31,0,0,1-.89.85L33.5,139a3.89,3.89,0,0,0,.88-1.57,8.65,8.65,0,0,0,.27-2.36v-9.27h1.59Zm-.81-13.15,1.08,1.07-1.08,1.08-1.08-1.08Z"/><path class="cls-2" d="M43.29,134a3.81,3.81,0,0,1-2.91-1.07,4.34,4.34,0,0,1-1-3.12,6,6,0,0,1,.24-1.76,3.6,3.6,0,0,1,.75-1.33,3.37,3.37,0,0,1,1.23-.84,5.18,5.18,0,0,1,3.39,0,3.08,3.08,0,0,1,1.23.81A3.54,3.54,0,0,1,47,128a5.71,5.71,0,0,1,.25,1.78,5.63,5.63,0,0,1-.25,1.76,3.67,3.67,0,0,1-.74,1.33,3.14,3.14,0,0,1-1.23.84A4.64,4.64,0,0,1,43.29,134Zm-2.23-4.21a8.28,8.28,0,0,0,.12,1.52,2.72,2.72,0,0,0,.39,1,1.54,1.54,0,0,0,.68.59,2.4,2.4,0,0,0,1,.19,3.37,3.37,0,0,0,.84-.09,1.91,1.91,0,0,0,.71-.36,1.64,1.64,0,0,0,.56-1.06,10.41,10.41,0,0,0,.14-1.79,4.74,4.74,0,0,0-.53-2.53,1.84,1.84,0,0,0-1.67-.79,3.61,3.61,0,0,0-.84.09,2,2,0,0,0-.71.33,1.14,1.14,0,0,0-.33.43,4.53,4.53,0,0,0-.22.68,6.28,6.28,0,0,0-.12.84Q41.06,129.32,41.06,129.78Z"/><path class="cls-2" d="M51.84,125.76v5.62a3.52,3.52,0,0,0,0,.56,1.28,1.28,0,0,0,.2.5,1.25,1.25,0,0,0,.42.36,1.63,1.63,0,0,0,.73.14,3.57,3.57,0,0,0,.63-.07c.23-.05.45-.11.68-.18a4.73,4.73,0,0,0,.66-.25c.21-.09.41-.19.58-.28v-6.4h1.6v8.08H56l-.24-1-.63.35c-.24.13-.5.25-.78.37a6.31,6.31,0,0,1-.87.28,3.5,3.5,0,0,1-.91.12,3.21,3.21,0,0,1-1-.14,2,2,0,0,1-.75-.45,2.08,2.08,0,0,1-.49-.75,2.73,2.73,0,0,1-.18-1v-5.87Z"/><path class="cls-2" d="M65.18,127l-.62,0-.65,0a1.09,1.09,0,0,0-.38,0,1.23,1.23,0,0,0-.31.14,3.07,3.07,0,0,0-.29.24l-.33.31v6.15H61v-8.08h1.33l.23,1.26h0a3.37,3.37,0,0,0,.27-.34c.1-.12.19-.24.29-.35a2.91,2.91,0,0,1,.31-.3,1.38,1.38,0,0,1,.36-.23,2.53,2.53,0,0,1,.72-.18,8,8,0,0,1,.88,0Z"/><path class="cls-2" d="M73.41,133.84v-5.63a3.53,3.53,0,0,0,0-.56,1.18,1.18,0,0,0-.2-.49.94.94,0,0,0-.42-.36,1.5,1.5,0,0,0-.73-.15,3.57,3.57,0,0,0-.63.07l-.68.18a4.73,4.73,0,0,0-.66.25c-.21.09-.41.19-.58.28v6.41H67.87v-8.08H69.2l.22.94h0l.63-.35a7.82,7.82,0,0,1,.77-.36,6.34,6.34,0,0,1,.87-.29,3.5,3.5,0,0,1,.91-.12,2.91,2.91,0,0,1,1,.15,1.89,1.89,0,0,1,.75.44,2,2,0,0,1,.49.75,2.73,2.73,0,0,1,.18,1v5.88Z"/><path class="cls-2" d="M81.73,125.58a3.68,3.68,0,0,1,1,.15,2.41,2.41,0,0,1,.92.52,3.3,3.3,0,0,1,.74,1,4.94,4.94,0,0,1,.46,1.49v.09a.89.89,0,0,1-.29.24,1.93,1.93,0,0,1-.47.18,4.88,4.88,0,0,1-.73.15,8.77,8.77,0,0,1-1,.1l-2.63.18v.51a3.4,3.4,0,0,0,.51,2.08,1.84,1.84,0,0,0,1.54.65,4.61,4.61,0,0,0,.88-.09,7.88,7.88,0,0,0,.87-.2l.75-.24a3.52,3.52,0,0,0,.52-.22l.2.46c-.23.15-.48.31-.77.48a8.57,8.57,0,0,1-.91.45,6.9,6.9,0,0,1-1,.34,4.54,4.54,0,0,1-1.1.14,3.6,3.6,0,0,1-1.25-.21,2.61,2.61,0,0,1-1-.69,3.51,3.51,0,0,1-.67-1.23A6.25,6.25,0,0,1,78,130a6.58,6.58,0,0,1,.29-2.07,3.38,3.38,0,0,1,.78-1.37,3,3,0,0,1,1.16-.76A4.61,4.61,0,0,1,81.73,125.58Zm-1.34,1.17a1,1,0,0,0-.24.3,2.38,2.38,0,0,0-.19.5,4.92,4.92,0,0,0-.14.63,4,4,0,0,0,0,.69l3.38-.14a5.88,5.88,0,0,0-.18-.81,2.6,2.6,0,0,0-.3-.72,1.63,1.63,0,0,0-.49-.52,1.22,1.22,0,0,0-.72-.2,2.6,2.6,0,0,0-.56.06A1.28,1.28,0,0,0,80.39,126.75Z"/><path class="cls-2" d="M92.92,127a2.18,2.18,0,0,0,0-.35c0-.12,0-.23,0-.34s0-.2-.07-.28a1.24,1.24,0,0,0-.06-.2l1.37-.32a1.7,1.7,0,0,1,.14.52,4.49,4.49,0,0,1,0,.64,6.57,6.57,0,0,1-.22,1.6,14.38,14.38,0,0,1-.58,1.84c-.25.63-.53,1.26-.85,1.9s-.66,1.24-1,1.8l-.77,1.21c-.26.42-.54.83-.84,1.24s-.59.8-.9,1.17a8.24,8.24,0,0,1-1,1,4.58,4.58,0,0,1-1,.68,2.65,2.65,0,0,1-1.09.24,2,2,0,0,1-.59-.07,1.27,1.27,0,0,1-.44-.2v-.51l.24,0h.25a1.87,1.87,0,0,0,.79-.21,6.49,6.49,0,0,0,.91-.58,11.63,11.63,0,0,0,1-.83c.32-.31.63-.64.92-1a12.51,12.51,0,0,0,.82-1,8.24,8.24,0,0,0,.64-.93c-.3-.89-.61-1.71-.91-2.49s-.58-1.46-.84-2.09-.5-1.16-.72-1.61-.4-.8-.55-1a1.05,1.05,0,0,0-.43-.41,1.08,1.08,0,0,0-.48-.13h-.13v-.48a4.88,4.88,0,0,1,.55-.12,3.39,3.39,0,0,1,.7-.07,2.41,2.41,0,0,1,.6.08.81.81,0,0,1,.46.3,4.52,4.52,0,0,1,.58,1c.22.44.44,1,.67,1.54s.47,1.22.72,1.9.48,1.37.7,2.05h0A11.86,11.86,0,0,0,92.2,131a9.11,9.11,0,0,0,.44-1.41,9.45,9.45,0,0,0,.22-1.33Q92.92,127.65,92.92,127Z"/><path class="cls-2" d="M101.72,126.63l-.91-.08v-.46l2.14-1.75h.32l0,1.42h2.21l-.1.72-.66.06-.68,0c-.25,0-.5,0-.75,0v5.26a1.42,1.42,0,0,0,.16.72c.1.2.33.29.69.29h.68l.73,0v.55a3,3,0,0,1-.45.18l-.61.18-.66.15a3.49,3.49,0,0,1-.61.06,2,2,0,0,1-.54-.07,1.18,1.18,0,0,1-.49-.24,1.4,1.4,0,0,1-.36-.5,2.23,2.23,0,0,1-.14-.84Z"/><path class="cls-2" d="M111.37,134a3.85,3.85,0,0,1-2.92-1.07,4.38,4.38,0,0,1-1-3.12,6,6,0,0,1,.25-1.76,3.6,3.6,0,0,1,.75-1.33,3.37,3.37,0,0,1,1.23-.84,4.62,4.62,0,0,1,1.7-.29,4.68,4.68,0,0,1,1.69.28,3.11,3.11,0,0,1,1.22.81A3.43,3.43,0,0,1,115,128a6,6,0,0,1,.25,1.78,5.93,5.93,0,0,1-.25,1.76,3.54,3.54,0,0,1-.75,1.33,3.18,3.18,0,0,1-1.22.84A4.68,4.68,0,0,1,111.37,134Zm-2.24-4.21a8.2,8.2,0,0,0,.13,1.52,2.72,2.72,0,0,0,.39,1,1.54,1.54,0,0,0,.68.59,2.4,2.4,0,0,0,1,.19,3.37,3.37,0,0,0,.84-.09,2,2,0,0,0,.71-.36,1.64,1.64,0,0,0,.56-1.06,10.41,10.41,0,0,0,.14-1.79,4.74,4.74,0,0,0-.53-2.53,1.86,1.86,0,0,0-1.67-.79,3.55,3.55,0,0,0-.84.09,2,2,0,0,0-.71.33,1.14,1.14,0,0,0-.33.43,4.53,4.53,0,0,0-.22.68,5,5,0,0,0-.12.84C109.15,129.16,109.13,129.47,109.13,129.78Z"/><path class="cls-2" d="M126,125.58a3.63,3.63,0,0,1,1,.15,2.53,2.53,0,0,1,.93.52,3.28,3.28,0,0,1,.73,1,5.23,5.23,0,0,1,.47,1.49v.09a1,1,0,0,1-.29.24,1.86,1.86,0,0,1-.48.18,4.88,4.88,0,0,1-.73.15,8.56,8.56,0,0,1-1,.1l-2.62.18v.51a3.48,3.48,0,0,0,.5,2.08,1.86,1.86,0,0,0,1.54.65,4.53,4.53,0,0,0,.88-.09,7.88,7.88,0,0,0,.87-.2l.75-.24a3.52,3.52,0,0,0,.52-.22l.21.46-.77.48a9.84,9.84,0,0,1-.92.45,6.54,6.54,0,0,1-1,.34,4.42,4.42,0,0,1-1.1.14,3.64,3.64,0,0,1-1.25-.21,2.51,2.51,0,0,1-1-.69,3.22,3.22,0,0,1-.67-1.23,6.25,6.25,0,0,1-.24-1.85,6.6,6.6,0,0,1,.28-2.07,3.63,3.63,0,0,1,.78-1.37,2.93,2.93,0,0,1,1.17-.76A4.54,4.54,0,0,1,126,125.58Zm-1.33,1.17a.86.86,0,0,0-.25.3,2.38,2.38,0,0,0-.19.5,4.92,4.92,0,0,0-.14.63,5.34,5.34,0,0,0,0,.69l3.38-.14a7.78,7.78,0,0,0-.17-.81,3,3,0,0,0-.31-.72,1.53,1.53,0,0,0-.49-.52,1.22,1.22,0,0,0-.72-.2,2.6,2.6,0,0,0-.56.06A1.24,1.24,0,0,0,124.66,126.75Z"/><path class="cls-2" d="M135.81,129.19c.3.55.59,1.06.87,1.56s.55.92.81,1.3a5.52,5.52,0,0,0,.72.89,1,1,0,0,0,.65.34h.2l.16,0v.47a3.37,3.37,0,0,1-.58.13,4,4,0,0,1-.71.06,1.67,1.67,0,0,1-.88-.23,2.67,2.67,0,0,1-.71-.65,8.68,8.68,0,0,1-.69-1.07c-.24-.43-.51-.92-.83-1.47-.26.42-.51.83-.75,1.24a12.35,12.35,0,0,1-.73,1.1,3.73,3.73,0,0,1-.8.79,1.59,1.59,0,0,1-.94.3,2.06,2.06,0,0,1-.81-.17v-.48h.13a1.67,1.67,0,0,0,.85-.23,3.58,3.58,0,0,0,.77-.68,11.34,11.34,0,0,0,.82-1.12l1-1.54-.81-1.46c-.24-.43-.46-.79-.65-1.08a2.7,2.7,0,0,0-.56-.65.87.87,0,0,0-.57-.22h-.22v-.48l.29,0,.34-.05.31,0h.25a1.67,1.67,0,0,1,.78.16,1.89,1.89,0,0,1,.58.5,5.44,5.44,0,0,1,.56.85c.19.34.41.74.68,1.21l.71-1.12a8.65,8.65,0,0,1,.61-.85,2.92,2.92,0,0,1,.58-.55,1.09,1.09,0,0,1,.62-.2,1.73,1.73,0,0,1,.41,0,2,2,0,0,1,.39.13v.5h-.31a1,1,0,0,0-.59.21,2.8,2.8,0,0,0-.58.57c-.19.25-.4.55-.62.9S136.09,128.76,135.81,129.19Z"/><path class="cls-2" d="M147,127.14l-.53-.23c-.21-.08-.42-.14-.64-.2s-.42-.11-.63-.15a3,3,0,0,0-.54-.06,1.77,1.77,0,0,0-.56.09,1.87,1.87,0,0,0-.55.33,1.42,1.42,0,0,0-.25.32,1.9,1.9,0,0,0-.22.55,4.59,4.59,0,0,0-.15.87,11.66,11.66,0,0,0,0,1.27,6.21,6.21,0,0,0,.13,1.41,2.18,2.18,0,0,0,.39.91,1.57,1.57,0,0,0,.66.48,2.87,2.87,0,0,0,.92.14,6,6,0,0,0,1.23-.14,6.74,6.74,0,0,0,1.15-.38l.22.48c-.21.15-.43.3-.67.44a6,6,0,0,1-.76.37,4.78,4.78,0,0,1-.84.25,3.91,3.91,0,0,1-.91.1,3.7,3.7,0,0,1-1.26-.21,2.57,2.57,0,0,1-1-.69,3.38,3.38,0,0,1-.69-1.23,6.87,6.87,0,0,1,0-3.71,4,4,0,0,1,.77-1.4,3.24,3.24,0,0,1,1.24-.87,4.59,4.59,0,0,1,1.72-.3q.57,0,1.17.06c.39,0,.75.1,1.08.16Z"/><path class="cls-2" d="M153.34,125.58a3.58,3.58,0,0,1,1,.15,2.53,2.53,0,0,1,.93.52,3.11,3.11,0,0,1,.73,1,4.93,4.93,0,0,1,.47,1.49v.09a1,1,0,0,1-.29.24,1.86,1.86,0,0,1-.48.18,4.73,4.73,0,0,1-.72.15,9,9,0,0,1-1,.1l-2.62.18v.51a3.4,3.4,0,0,0,.51,2.08,1.83,1.83,0,0,0,1.53.65,4.46,4.46,0,0,0,.88-.09,7,7,0,0,0,.87-.2l.75-.24a3.72,3.72,0,0,0,.53-.22l.2.46-.77.48a9.64,9.64,0,0,1-.91.45,6.9,6.9,0,0,1-1,.34,4.56,4.56,0,0,1-1.11.14,3.55,3.55,0,0,1-1.24-.21,2.47,2.47,0,0,1-1-.69,3.22,3.22,0,0,1-.67-1.23,6.25,6.25,0,0,1-.24-1.85,6.6,6.6,0,0,1,.28-2.07,3.63,3.63,0,0,1,.78-1.37,2.93,2.93,0,0,1,1.17-.76A4.54,4.54,0,0,1,153.34,125.58ZM152,126.75a.76.76,0,0,0-.24.3,2.36,2.36,0,0,0-.2.5,5,5,0,0,0-.13.63,4,4,0,0,0-.06.69l3.38-.14a5.84,5.84,0,0,0-.17-.81,2.61,2.61,0,0,0-.31-.72,1.53,1.53,0,0,0-.49-.52,1.18,1.18,0,0,0-.72-.2,2.67,2.67,0,0,0-.56.06A1.3,1.3,0,0,0,152,126.75Z"/><path class="cls-2" d="M159.53,133.84V120.58l1.59-.4v13.66Z"/><path class="cls-2" d="M164.76,133.84V120.58l1.59-.4v13.66Z"/><path class="cls-2" d="M173.16,125.58a3.63,3.63,0,0,1,1,.15,2.53,2.53,0,0,1,.93.52,3.28,3.28,0,0,1,.73,1,5.23,5.23,0,0,1,.47,1.49v.09a1,1,0,0,1-.29.24,2,2,0,0,1-.48.18,4.88,4.88,0,0,1-.73.15,8.77,8.77,0,0,1-1,.1l-2.62.18v.51a3.48,3.48,0,0,0,.5,2.08,1.84,1.84,0,0,0,1.54.65,4.53,4.53,0,0,0,.88-.09,7.88,7.88,0,0,0,.87-.2l.75-.24a3.52,3.52,0,0,0,.52-.22l.2.46c-.22.15-.48.31-.76.48a9.84,9.84,0,0,1-.92.45,6.9,6.9,0,0,1-1,.34,4.42,4.42,0,0,1-1.1.14,3.6,3.6,0,0,1-1.25-.21,2.61,2.61,0,0,1-1-.69,3.35,3.35,0,0,1-.66-1.23,6.22,6.22,0,0,1-.25-1.85,6.58,6.58,0,0,1,.29-2.07,3.63,3.63,0,0,1,.78-1.37,2.93,2.93,0,0,1,1.17-.76A4.54,4.54,0,0,1,173.16,125.58Zm-1.33,1.17a.86.86,0,0,0-.25.3,2.38,2.38,0,0,0-.19.5,4.92,4.92,0,0,0-.14.63,5.34,5.34,0,0,0-.05.69l3.38-.14a7.78,7.78,0,0,0-.17-.81,3,3,0,0,0-.31-.72,1.53,1.53,0,0,0-.49-.52,1.22,1.22,0,0,0-.72-.2,2.6,2.6,0,0,0-.56.06A1.24,1.24,0,0,0,171.83,126.75Z"/><path class="cls-2" d="M184.89,133.84v-5.63a3.53,3.53,0,0,0,0-.56,1.18,1.18,0,0,0-.2-.49,1.06,1.06,0,0,0-.42-.36,1.5,1.5,0,0,0-.73-.15,3.57,3.57,0,0,0-.63.07c-.23,0-.45.11-.68.18a4.73,4.73,0,0,0-.66.25c-.21.09-.41.19-.58.28v6.41h-1.6v-8.08h1.34l.22.94h0l.63-.35a7.82,7.82,0,0,1,.77-.36,6.34,6.34,0,0,1,.87-.29,3.5,3.5,0,0,1,.91-.12,2.91,2.91,0,0,1,.95.15,1.89,1.89,0,0,1,.75.44,2.17,2.17,0,0,1,.49.75,2.73,2.73,0,0,1,.18,1v5.88Z"/><path class="cls-2" d="M195.35,127.14l-.54-.23a5.8,5.8,0,0,0-.63-.2c-.21-.06-.43-.11-.64-.15a2.77,2.77,0,0,0-.53-.06,1.77,1.77,0,0,0-.56.09,1.87,1.87,0,0,0-.55.33,1.79,1.79,0,0,0-.26.32,2.72,2.72,0,0,0-.22.55,5.66,5.66,0,0,0-.14.87,11.38,11.38,0,0,0-.06,1.27,6.84,6.84,0,0,0,.13,1.41,2.32,2.32,0,0,0,.4.91,1.57,1.57,0,0,0,.66.48,2.82,2.82,0,0,0,.92.14,5.86,5.86,0,0,0,1.22-.14,6.58,6.58,0,0,0,1.16-.38l.21.48a6.88,6.88,0,0,1-.66.44,6.67,6.67,0,0,1-.76.37,4.78,4.78,0,0,1-.84.25,3.91,3.91,0,0,1-.91.1,3.8,3.8,0,0,1-1.27-.21,2.6,2.6,0,0,1-1-.69,3.24,3.24,0,0,1-.69-1.23,5.91,5.91,0,0,1-.25-1.85,6.28,6.28,0,0,1,.26-1.86,4.1,4.1,0,0,1,.76-1.4,3.28,3.28,0,0,1,1.25-.87,4.57,4.57,0,0,1,1.71-.3,11.46,11.46,0,0,1,1.17.06c.4,0,.76.1,1.09.16Z"/><path class="cls-2" d="M201.67,125.58a3.63,3.63,0,0,1,1,.15,2.53,2.53,0,0,1,.93.52,3.28,3.28,0,0,1,.73,1,4.93,4.93,0,0,1,.47,1.49v.09a1,1,0,0,1-.29.24,1.86,1.86,0,0,1-.48.18,4.88,4.88,0,0,1-.73.15,8.56,8.56,0,0,1-1,.1l-2.62.18v.51a3.4,3.4,0,0,0,.51,2.08,1.82,1.82,0,0,0,1.53.65,4.53,4.53,0,0,0,.88-.09,7.88,7.88,0,0,0,.87-.2l.75-.24a4.29,4.29,0,0,0,.53-.22l.2.46-.77.48a9.84,9.84,0,0,1-.92.45,6.54,6.54,0,0,1-1,.34,4.42,4.42,0,0,1-1.1.14,3.64,3.64,0,0,1-1.25-.21,2.51,2.51,0,0,1-1-.69,3.22,3.22,0,0,1-.67-1.23A6.25,6.25,0,0,1,198,130a6.6,6.6,0,0,1,.28-2.07,3.63,3.63,0,0,1,.78-1.37,2.93,2.93,0,0,1,1.17-.76A4.54,4.54,0,0,1,201.67,125.58Zm-1.33,1.17a.86.86,0,0,0-.25.3,2.38,2.38,0,0,0-.19.5,4.92,4.92,0,0,0-.14.63,5.34,5.34,0,0,0,0,.69l3.38-.14a7.78,7.78,0,0,0-.17-.81,3,3,0,0,0-.31-.72,1.53,1.53,0,0,0-.49-.52,1.22,1.22,0,0,0-.72-.2,2.6,2.6,0,0,0-.56.06A1.24,1.24,0,0,0,200.34,126.75Z"/><g class="cls-3"><path class="cls-2" d="M91.06,57.91l.7-.14c-.11-.51-.27-1.29-.43-2.05l-.11-.52-.53,0-5.2-.42-.06.71.54.45c1.41-1.68,2.67-3.06,3.79-4.57l0,0,0,0a4.69,4.69,0,0,0,.65-1.21,4.46,4.46,0,0,0,.29-1.36h0c.12-3.7.55-7.22,2.4-10.33h0c.34-.57.66-1.14,1-1.64a4.82,4.82,0,0,1,1.15-1.22h0c.32-.22.57-.39.8-.52a3,3,0,0,1,.92-.36,7,7,0,0,1,1.41-.11l1.46,0,0-.71,0,.71c.47,0,1,0,1.6,0,3.48,0,8.93-.38,13.66-.75l6.18-.52,2-.17.62-.05.29,0v-.37l0,.37h0v-.37l0,.37.07-.66-.2.63a.33.33,0,0,0,.13,0l.07-.66-.2.63.21-.67-.42.57a.53.53,0,0,0,.21.1l.21-.67-.42.57.42-.57-.6.38a.83.83,0,0,0,.18.19l.42-.57-.6.38.6-.38h-.71a.77.77,0,0,0,.11.38l.6-.38h0l-.7-.09v.09h.71l-.7-.09-.12.92.92-.13a22.69,22.69,0,0,1,3-.22,12.31,12.31,0,0,1,4.08.63,9.15,9.15,0,0,1,4.35,3.2,20.27,20.27,0,0,1,3,6.08l.67-.22.42-.58-3.66-2.59-1.84-1.31.76,2.13c.65,1.82,1.21,3.23,1.66,4.65h0a16,16,0,0,1,.81,4.81,12,12,0,0,1-.66,4,30.35,30.35,0,0,0-.88,4.19l-.08.35.25.27.21.24a1.14,1.14,0,0,0,.12.14.87.87,0,0,0,.35.19h0a4.75,4.75,0,0,0,.65.09,1.58,1.58,0,0,1,.34,0c.13,0,.16,0,.16,0l0,0a.37.37,0,0,1,.06.17h0a2.79,2.79,0,0,1,0,.47,1.89,1.89,0,0,1-.24.91,2.21,2.21,0,0,1-.7.74h0a6.58,6.58,0,0,0-1.74,2,3.77,3.77,0,0,0-.41,1.09c-.09.34-.15.66-.23.92h0a9.16,9.16,0,0,1-3.6,4.83,10,10,0,0,1-5.66,1.75,9.32,9.32,0,0,1-6-2.14,8.85,8.85,0,0,1-2-2.48,13.62,13.62,0,0,1-1.2-3.07s0-.11,0-.22a3.62,3.62,0,0,0-.09-.42,5.83,5.83,0,0,0-.49-1.14,2,2,0,0,0-.53-.57,1.53,1.53,0,0,0-.86-.26,1.67,1.67,0,0,0-.44.06h0a2,2,0,0,0-.66.31,3.45,3.45,0,0,0-.7.73,5.65,5.65,0,0,0-.48.8h0a11.18,11.18,0,0,0-.57,1.65,10.67,10.67,0,0,1-.49,1.45,8.62,8.62,0,0,1-3.3,3.86A9.76,9.76,0,0,1,102.56,72c-.34,0-.69,0-1,0a9.16,9.16,0,0,1-5.16-1.75,8.69,8.69,0,0,1-2.9-4.5,14.64,14.64,0,0,0-.92-2.59A4.38,4.38,0,0,0,90.16,61l-.16.4.32-.29a.38.38,0,0,0-.16-.11l-.16.4.32-.29-.16.15.18-.13,0,0-.16.15.18-.13-.07,0,.07,0h0l-.07,0,.07,0v0a1.7,1.7,0,0,1-.11-.45,5.45,5.45,0,0,1,0-1.23h0l-.17,0,.16.08v-.05l-.17,0,.16.08h0a.92.92,0,0,1,.11-.11,6.25,6.25,0,0,1,.5-.38c.22-.16.47-.33.72-.55l.31-.27-.08-.41-.7.14-.46-.54c-.3.26-.65.49-1,.73a2.68,2.68,0,0,0-.48.42,1.45,1.45,0,0,0-.34.69h0a5.06,5.06,0,0,0-.06.79,5.58,5.58,0,0,0,.13,1.23,2.1,2.1,0,0,0,.2.56,1.52,1.52,0,0,0,.2.29.92.92,0,0,0,.36.25,3,3,0,0,1,1,.61,3.6,3.6,0,0,1,.86,1.34c.21.54.38,1.16.58,1.83a10.18,10.18,0,0,0,3.39,5.21,10.61,10.61,0,0,0,5.94,2c.39,0,.77,0,1.14,0a11.09,11.09,0,0,0,5.89-1.49,10,10,0,0,0,3.85-4.47,12,12,0,0,0,.57-1.65,9.32,9.32,0,0,1,.49-1.44h0a3.42,3.42,0,0,1,.47-.74,1.94,1.94,0,0,1,.27-.25.3.3,0,0,1,.15-.08h0l.1,0,.06,0a.91.91,0,0,1,.21.31,7,7,0,0,1,.26.68.76.76,0,0,1,0,.18,2.83,2.83,0,0,0,.08.37,14.55,14.55,0,0,0,1.32,3.39,10.38,10.38,0,0,0,2.36,2.88,10.75,10.75,0,0,0,6.91,2.48,11.46,11.46,0,0,0,6.46-2A10.51,10.51,0,0,0,136.19,66h0c.12-.36.18-.7.26-1a2.62,2.62,0,0,1,.25-.71,5.23,5.23,0,0,1,1.35-1.57h0a3.82,3.82,0,0,0,1.11-1.19,3.28,3.28,0,0,0,.42-1.62,4.74,4.74,0,0,0-.07-.74h0a1.79,1.79,0,0,0-.47-.94,1.51,1.51,0,0,0-.58-.36,3.17,3.17,0,0,0-.76-.13,2.85,2.85,0,0,1-.46,0h0l-.15.58.4-.45a.67.67,0,0,0-.25-.13l-.15.58.4-.45-.25.28.27-.25,0,0-.25.28.27-.25h0l-.26-.3-.53.48.7.14a30,30,0,0,1,.84-4,13.47,13.47,0,0,0,.73-4.42,17.24,17.24,0,0,0-.88-5.24v0c-.47-1.48-1-2.9-1.67-4.7l-.67.24-.41.58L139,43.19l1.78,1.25-.69-2.06c-1.17-3.48-2.61-6.19-4.68-8.06a10.32,10.32,0,0,0-3.57-2.12,13.76,13.76,0,0,0-4.55-.7,23.85,23.85,0,0,0-3.15.23l.1.71.71.09v-.09a.59.59,0,0,0-.11-.38.67.67,0,0,0-.29-.26.57.57,0,0,0-.2-.07h-.15l-.39,0c-1.24.09-5.23.46-9.73.81s-9.48.68-12.65.68c-.58,0-1.09,0-1.53,0h0l-1.51,0a6.86,6.86,0,0,0-2.17.26,4.26,4.26,0,0,0-.87.4,10.26,10.26,0,0,0-.9.58h0A6.1,6.1,0,0,0,92.94,36c-.4.58-.73,1.18-1.06,1.72h0c-2,3.45-2.48,7.25-2.61,11h0a2.6,2.6,0,0,1-.19.9,3.51,3.51,0,0,1-.46.86v0c-1.07,1.44-2.3,2.8-3.74,4.51L84,56.05l1.37.11,5.21.42.06-.71-.7.14c.16.76.32,1.54.43,2.05l.69-.15-.46-.54Zm15.68-9.78-.41-.58c-.46.33-.85.59-1.24.89h0a36,36,0,0,1-9.3,5.32c-.43.16-.77.28-1.07.42a3,3,0,0,0-.61.38,1.73,1.73,0,0,0-.36.44,2,2,0,0,0-.23.77,8.05,8.05,0,0,0,0,.88V57a5.85,5.85,0,0,0,.09.83l.08.68.68,0c.35,0,.68,0,1.08-.09a33.48,33.48,0,0,1,5.79-.51,31,31,0,0,1,7.81,1,20.6,20.6,0,0,0,5.09.65,21.28,21.28,0,0,0,5.29-.69,30.13,30.13,0,0,1,7.59-1,35.58,35.58,0,0,1,4.36.28c.81.1,1.64.23,2.69.38l.86.13-.05-.87c-.13-2.09-.23-4-.39-6v0A7.56,7.56,0,0,0,134,49.8h0c-.7-1.8-1.5-3.52-2.11-5.26h0a29.93,29.93,0,0,1-.7-3.42l-.52-2.6L129.8,41c-1.58,4.65-3.94,8.23-7.65,10.84a21.29,21.29,0,0,1-12.72,3.65h-.08v.71l.52.48,7.11-7.8,3.13-3.45-4,2.35c-5.62,3.29-11.25,6.26-17.87,7.8l.16.69.48.52c1.63-1.48,3-2.7,4.4-4h0c1.36-1.33,2.62-2.74,4-4.19l-.93-1.06.41.58-.51-.49c-1.39,1.46-2.64,2.85-4,4.15h0c-1.31,1.28-2.71,2.49-4.36,4l-2,1.83L98.55,57c6.85-1.58,12.61-4.65,18.26-8l-.35-.61-.53-.48-7.11,7.8L107.74,57h1.69A22.62,22.62,0,0,0,123,53a22.06,22.06,0,0,0,8.19-11.55l-.68-.23-.69.14a27.23,27.23,0,0,0,.75,3.61h0c.64,1.83,1.45,3.56,2.12,5.3h0A6.46,6.46,0,0,1,133,52v0c.16,1.91.26,3.84.39,5.94l.71,0,.1-.7c-1-.15-1.86-.29-2.72-.39a36.26,36.26,0,0,0-4.53-.29,31.72,31.72,0,0,0-7.95,1,19.4,19.4,0,0,1-4.93.64,19.11,19.11,0,0,1-4.73-.6,32.56,32.56,0,0,0-8.17-1,36.11,36.11,0,0,0-6,.52,8.49,8.49,0,0,1-1,.08l0,.71.71-.08c0-.33-.08-.54-.08-.67v-.39a4.87,4.87,0,0,1,0-.79.57.57,0,0,1,0-.17l0-.06a1.57,1.57,0,0,1,.38-.21l.85-.33A38,38,0,0,0,106,49.57h0c.35-.27.73-.53,1.2-.87l-.42-.57-.51-.49Zm19.38,10.33-.15-.69c-1.69.36-4.09.78-6.45,1.46h0a2.53,2.53,0,0,0-.72.35,4,4,0,0,0-.87.83,2.79,2.79,0,0,0-.53,1.06,8.53,8.53,0,0,0-.23,1.92,8.44,8.44,0,0,0,2.44,5.88,8.55,8.55,0,0,0,6,2.56h.17A8.91,8.91,0,0,0,132.49,69a10.56,10.56,0,0,0,2.62-7.23v-.17a5.94,5.94,0,0,0-.11-1.16,2.29,2.29,0,0,0-.29-.75,2,2,0,0,0-.91-.8,5.08,5.08,0,0,0-1.28-.34c-1.87-.29-3.73-.45-6.32-.75h-.11l-.12,0,.15.69-.08.71c2.6.3,4.46.46,6.27.74a3.23,3.23,0,0,1,.83.2.91.91,0,0,1,.27.16.62.62,0,0,1,.18.35,3.63,3.63,0,0,1,.09,1s0,.1,0,.15A9.16,9.16,0,0,1,131.44,68a7.53,7.53,0,0,1-5.67,2.42h-.15a7.08,7.08,0,0,1-5-2.14,6.93,6.93,0,0,1-2-4.88,7.25,7.25,0,0,1,.18-1.59,1.27,1.27,0,0,1,.15-.33,2.51,2.51,0,0,1,.48-.57,1.58,1.58,0,0,1,.5-.3h0c2.27-.66,4.63-1.07,6.36-1.44l-.15-.7-.08.71Zm-23.9,0-.08-.71c-2.55.29-4.46.45-6.38.73a6.72,6.72,0,0,0-1.13.26,2.61,2.61,0,0,0-.69.39,1.92,1.92,0,0,0-.64,1,4.33,4.33,0,0,0-.14,1.23v.18a16.53,16.53,0,0,0,.29,3h0a9.06,9.06,0,0,0,3.24,5.21,9.17,9.17,0,0,0,5.7,2.08,9.43,9.43,0,0,0,1.06-.07A8.63,8.63,0,0,0,109,68.91,9,9,0,0,0,111,63c0-.2,0-.39,0-.59a4.07,4.07,0,0,0-.57-2,2.63,2.63,0,0,0-.73-.76,3.32,3.32,0,0,0-1-.46c-2.29-.57-4.59-1-6.29-1.39l-.11,0h-.12l.08.71-.15.7c1.71.37,4,.82,6.25,1.38a1.74,1.74,0,0,1,.58.25,1.41,1.41,0,0,1,.48.61,3,3,0,0,1,.21,1.06c0,.17,0,.34,0,.51a7.55,7.55,0,0,1-1.71,5,7.15,7.15,0,0,1-4.62,2.4,8.65,8.65,0,0,1-.88.05,7.9,7.9,0,0,1-7.55-6.14v0a15.79,15.79,0,0,1-.26-2.78v-.15a3,3,0,0,1,.07-.77.74.74,0,0,1,.1-.26.64.64,0,0,1,.31-.21A3.74,3.74,0,0,1,96,59.9c1.86-.27,3.76-.44,6.33-.72l-.08-.71-.15.7Z"/><path d="M103.15,65.49a1.28,1.28,0,1,1-1.27-1.28,1.27,1.27,0,0,1,1.27,1.28"/><path class="cls-2" d="M103.15,65.49h-.47a.81.81,0,1,1-.8-.81.8.8,0,0,1,.8.81h.95a1.75,1.75,0,1,0-1.75,1.75,1.76,1.76,0,0,0,1.75-1.75Z"/><path d="M126.81,65.49a1.28,1.28,0,1,1-1.28-1.28,1.27,1.27,0,0,1,1.28,1.28"/><path class="cls-2" d="M126.81,65.49h-.48a.8.8,0,1,1-.8-.81.8.8,0,0,1,.8.81h1a1.75,1.75,0,1,0-1.75,1.75,1.75,1.75,0,0,0,1.75-1.75Z"/><path class="cls-2" d="M93.43,25.48l.25-.67-6.86-2.56-1-.37,0,1.06A29.26,29.26,0,0,0,86,25.89h0a1.28,1.28,0,0,0,.17.49,2.76,2.76,0,0,0,.38.47l.32.3h0a2.74,2.74,0,0,1,.46.53.49.49,0,0,1,.08.29,2,2,0,0,1-.17.72h0a1.62,1.62,0,0,0-.07.47,2.64,2.64,0,0,0,.28,1.08h0c.53,1,1.11,2,1.72,3.14L89.8,33l0-.71-6.57.39,0,.71.66.26c.47-1.2.93-2.3,1.32-3.45h0a2.35,2.35,0,0,0,.1-.69,2.14,2.14,0,0,0-.19-.92h0a2,2,0,0,1-.21-.79.91.91,0,0,1,.13-.48,2.11,2.11,0,0,1,.49-.56l0,0,0,0a1.65,1.65,0,0,0,.44-.63,2.07,2.07,0,0,0,.14-.69h0c0-.69-.15-1.27-.15-1.73,0-.07,0-.14,0-.21h0c0-.1,0-.2,0-.29a2.16,2.16,0,0,0-.15-.81,1.81,1.81,0,0,0-.72-.86,3.32,3.32,0,0,0-.92-.42h0c-1.36-.46-2.72-1-4.27-1.63l-.26.66.36.61c.87-.51,1.58-1,2.29-1.34h0C85.09,18,87.9,16.52,90.69,15l12.89-6.92c2.39-1.29,4.75-2.59,7.14-3.81h0a1.23,1.23,0,0,1,.53-.11.8.8,0,0,1,.31,0h0c3.68,1.4,7.34,2.89,11,4.33,4.89,1.91,9.79,3.79,14.67,5.68h0L144,16.89l.26-.66-.34-.62c-1.18.66-2.21,1.25-3.24,1.81h0c-3,1.63-6,3.71-9,5.25h0l.23.45v-.51a.56.56,0,0,0-.23.06l.23.45V23l.1-.33-.1,0V23l.1-.33,0,.12,0-.12h0l0,.12,0-.12h0l-.21-.15-.27-.22h0a21.28,21.28,0,0,0-10-4.13,50.92,50.92,0,0,0-7.41-.56h-.39a34.68,34.68,0,0,0-15.22,3.29h0A17.07,17.07,0,0,0,92.89,25l.54.46.25-.67-.25.67.55.45a15.56,15.56,0,0,1,5.18-3.8h0A33.17,33.17,0,0,1,113.77,19h.37a49.65,49.65,0,0,1,7.2.55,19.91,19.91,0,0,1,9.31,3.85h0l.14.12a3.77,3.77,0,0,0,.4.3l.29.15a1.39,1.39,0,0,0,.42.09.91.91,0,0,0,.43-.11h0c3.06-1.6,6.06-3.68,9-5.26h0c1.06-.57,2.09-1.17,3.26-1.82l1.31-.74-1.4-.54-6.73-2.64C132.88,11,128,9.15,123.1,7.25c-3.67-1.44-7.33-2.93-11-4.34h0a2.4,2.4,0,0,0-.82-.14,2.66,2.66,0,0,0-1.17.26h0c-2.42,1.24-4.79,2.55-7.17,3.82L90,13.77c-2.78,1.48-5.59,2.94-8.38,4.43h0c-.78.41-1.5.87-2.34,1.37L78,20.31l1.37.53c1.53.59,2.9,1.18,4.34,1.66h0a1.81,1.81,0,0,1,.68.33.24.24,0,0,1,.09.13.78.78,0,0,1,0,.28v.16h0c0,.11,0,.23,0,.34,0,.69.15,1.27.14,1.74h0a.45.45,0,0,1,0,.17l0,.06h0l.09.08-.08-.09h0l.09.08-.08-.09h0a3.52,3.52,0,0,0-.82,1,2.41,2.41,0,0,0-.31,1.17,3.34,3.34,0,0,0,.34,1.39h0a.78.78,0,0,1,.06.32,1,1,0,0,1,0,.23h0c-.37,1.09-.82,2.18-1.29,3.4l-.4,1,1.1-.07,6.58-.39L91,33.68l-.54-1c-.62-1.13-1.19-2.11-1.7-3.1h0a1.34,1.34,0,0,1-.13-.43v0h-.1l.1,0v0h-.1l.1,0h0A3.9,3.9,0,0,0,88.84,28a2,2,0,0,0-.28-1,3.64,3.64,0,0,0-.7-.84l0,0,0,0c-.15-.15-.29-.27-.38-.37a.48.48,0,0,1-.08-.1h0l-.15.07.16,0v-.05l-.15.07.16,0h0c-.11-.86-.09-1.78-.13-2.82l-.71,0-.25.67,6.87,2.56.47.18.32-.39Z"/><path class="cls-2" d="M95.42,34.15l.71,0c-.12-2-.27-3.88-.31-5.77h0a1,1,0,0,1,.14-.24,1.42,1.42,0,0,1,.28-.31h0a25.25,25.25,0,0,1,13.19-5.44h0a42.08,42.08,0,0,1,5.36-.36,32.46,32.46,0,0,1,4.61.31h0a22.7,22.7,0,0,1,9.81,3.7h0a.73.73,0,0,1,.2.2.7.7,0,0,1,.06.33h0c.08,2.17.23,3.85.34,5.05h0v.06H130l-.15,0v0H130l-.15,0,.39.11-.3-.27a.29.29,0,0,0-.09.16l.39.11-.3-.27.33.29-.21-.39a.48.48,0,0,0-.12.1l.33.29-.21-.39.15.28-.09-.3-.06,0,.15.28-.09-.3,0,.08v-.09h0l0,.08v-.09H130l-8.54.52-16.91,1-9.14.57,0,.71.71,0-.71,0,0,.71,9.14-.57,16.91-1,8.54-.52h0l.31,0a1.21,1.21,0,0,0,.3-.09,1.06,1.06,0,0,0,.45-.44,1.21,1.21,0,0,0,.12-.56v-.19h0c-.11-1.19-.26-2.84-.34-5v0a2.23,2.23,0,0,0-.22-.94,2,2,0,0,0-.66-.72h0A24.18,24.18,0,0,0,119.6,20.9a33.91,33.91,0,0,0-4.81-.33,43.13,43.13,0,0,0-5.55.38h0a26.65,26.65,0,0,0-13.9,5.75h0a3.19,3.19,0,0,0-.6.66,1.79,1.79,0,0,0-.34,1v0h0c0,2,.2,3.89.31,5.83l0,.72.71,0Z"/><path class="cls-2" d="M55.88,38.74v.71a12,12,0,0,0,4.31-.68,6.35,6.35,0,0,0,2.12-1.3,6,6,0,0,0,1.63-2.77,11.16,11.16,0,0,0,.36-3,57.54,57.54,0,0,0-.77-8.1h0a55.15,55.15,0,0,1-.75-7.8,13.82,13.82,0,0,1,1-5.37,9.3,9.3,0,0,1,4.53-4.83A16.65,16.65,0,0,1,75.87,4h1.29V7.84h-1a10.82,10.82,0,0,0-3.8.6A6.53,6.53,0,0,0,70.29,9.7a6.65,6.65,0,0,0-1.84,3,13.63,13.63,0,0,0-.52,4,42.73,42.73,0,0,0,.67,6.88h0a43.42,43.42,0,0,1,.66,7.12h0v.3a10.44,10.44,0,0,1-1.71,6.36,8.12,8.12,0,0,1-4.62,2.93l-.53.14v1.29l.54.14a7.62,7.62,0,0,1,4.6,2.93,10.79,10.79,0,0,1,1.72,6.44v.31h0a42.51,42.51,0,0,1-.66,7.12h0a43.83,43.83,0,0,0-.67,7,14,14,0,0,0,.45,3.74A6.77,6.77,0,0,0,71,73.35a9,9,0,0,0,5.13,1.34h1V78.5H75.87a19.45,19.45,0,0,1-5.29-.66,10,10,0,0,1-5.65-3.73,13.22,13.22,0,0,1-2.15-7.94,53.91,53.91,0,0,1,.75-7.71h0a53.39,53.39,0,0,0,.77-7.82A10.75,10.75,0,0,0,64,48.13a6.35,6.35,0,0,0-2.31-3.65,9.44,9.44,0,0,0-5.84-1.59v.71h.71V38.74h-.71v0h-.72v5.57h.72a9.82,9.82,0,0,1,3.78.63A5,5,0,0,1,61.32,46a4.85,4.85,0,0,1,1.25,2.18,8.6,8.6,0,0,1,.31,2.44,51.09,51.09,0,0,1-.76,7.61h0a55,55,0,0,0-.77,7.92,16.88,16.88,0,0,0,1.1,6.36,10.81,10.81,0,0,0,5.26,5.73,18.29,18.29,0,0,0,8.16,1.67h2.72V73.27H76.16a9,9,0,0,1-3.17-.5,4.88,4.88,0,0,1-2.75-2.44,10.3,10.3,0,0,1-.89-4.64A42.1,42.1,0,0,1,70,59h0a43.61,43.61,0,0,0,.68-7.35h0v-.33a12.17,12.17,0,0,0-2-7.27,9.14,9.14,0,0,0-5.42-3.48l-.17.69h.71V41h-.71l.19.68a9.51,9.51,0,0,0,5.4-3.46,11.81,11.81,0,0,0,2-7.2v-.32h0A45.63,45.63,0,0,0,70,23.39h0a42,42,0,0,1-.65-6.65,12.77,12.77,0,0,1,.36-3.27,6.21,6.21,0,0,1,.77-1.81A4.6,4.6,0,0,1,72.55,9.9a8.84,8.84,0,0,1,3.61-.64h2.43V2.6H75.87c-4.15,0-7.77.95-10.39,3.12a10.6,10.6,0,0,0-3.05,4.15,15.11,15.11,0,0,0-1.08,5.92,56,56,0,0,0,.77,8h0a56.57,56.57,0,0,1,.76,7.9A10.08,10.08,0,0,1,62.64,34,5.27,5.27,0,0,1,62,35.57a4.35,4.35,0,0,1-2,1.73,9.87,9.87,0,0,1-4.14.73h-.72v.71Z"/><path class="cls-2" d="M169,45.72V45a11.34,11.34,0,0,0-4.33.74,6.65,6.65,0,0,0-2.12,1.38,6.52,6.52,0,0,0-1.62,2.8,10.38,10.38,0,0,0-.36,2.84,53.53,53.53,0,0,0,.77,7.82h0a53.81,53.81,0,0,1,.76,7.7,15.37,15.37,0,0,1-1,5.83,9.29,9.29,0,0,1-4.58,5A16.61,16.61,0,0,1,149,80.63h-1.29V76.81h1a10.37,10.37,0,0,0,3.68-.59,6.31,6.31,0,0,0,3.5-3.11,11.56,11.56,0,0,0,1.06-5.29,43.74,43.74,0,0,0-.68-7h0a42.41,42.41,0,0,1-.66-7.12h0v-.3A10.79,10.79,0,0,1,157.31,47a7.68,7.68,0,0,1,4.6-2.94l.54-.13V42.61l-.53-.14a8.08,8.08,0,0,1-4.62-2.94,10.47,10.47,0,0,1-1.71-6.35v-.3h0a43.64,43.64,0,0,1,.66-7.13h0a42.86,42.86,0,0,0,.68-6.88,14.15,14.15,0,0,0-.41-3.63,7.92,7.92,0,0,0-1-2.22,6.11,6.11,0,0,0-2.69-2.29,10.29,10.29,0,0,0-4.19-.76h-1V6.15H149c3.94,0,7.22.91,9.48,2.79a9.18,9.18,0,0,1,2.65,3.61,13.74,13.74,0,0,1,1,5.37,55.33,55.33,0,0,1-.76,7.8h0a57.54,57.54,0,0,0-.77,8.1,11.12,11.12,0,0,0,.28,2.67,6.53,6.53,0,0,0,.78,1.95,5.75,5.75,0,0,0,2.64,2.28,11.36,11.36,0,0,0,4.73.86v-.71h-.71v4.85H169v0h.71V40.16H169a10.67,10.67,0,0,1-3.81-.59,4.88,4.88,0,0,1-1.65-1,4.66,4.66,0,0,1-1.24-2.12,9.8,9.8,0,0,1-.31-2.62,56.57,56.57,0,0,1,.76-7.9h0a56,56,0,0,0,.77-8A15.11,15.11,0,0,0,162.42,12a10.77,10.77,0,0,0-5.19-5.56A18.19,18.19,0,0,0,149,4.73h-2.71v6.66h2.42a9.34,9.34,0,0,1,3.3.51,5.06,5.06,0,0,1,1.62,1A5.34,5.34,0,0,1,155,15.26a11.69,11.69,0,0,1,.46,3.61,39.57,39.57,0,0,1-.65,6.64h0a44.31,44.31,0,0,0-.68,7.35h0v.32a11.83,11.83,0,0,0,2,7.19,9.49,9.49,0,0,0,5.4,3.47l.18-.69H161v.19h.71l-.17-.69a9.11,9.11,0,0,0-5.42,3.49,12.24,12.24,0,0,0-2,7.27v.32h0a43.63,43.63,0,0,0,.68,7.36h0a41,41,0,0,1,.65,6.75,12.38,12.38,0,0,1-.39,3.35A5.37,5.37,0,0,1,153,74.3a7.43,7.43,0,0,1-4.32,1.09h-2.42v6.66H149a21,21,0,0,0,5.68-.71,11.53,11.53,0,0,0,6.42-4.27,14.66,14.66,0,0,0,2.42-8.78,54.9,54.9,0,0,0-.77-7.91h0a52.59,52.59,0,0,1-.76-7.61,9.16,9.16,0,0,1,.24-2.18A4.89,4.89,0,0,1,164,47.74a8.06,8.06,0,0,1,5-1.3h.71v-.72Z"/></g></svg>