<svg width="41" height="52" viewBox="0 0 41 52" fill="none" xmlns="http://www.w3.org/2000/svg">
<path id="Vector" d="M39.7966 25.2575C39.8832 25.3541 39.952 25.4687 39.9988 25.5949C40.0457 25.7212 40.0699 25.8564 40.0699 25.9931C40.0699 26.1297 40.0457 26.265 39.9988 26.3912C39.952 26.5174 39.8832 26.6321 39.7966 26.7286L20.6803 48.0417C18.4083 50.5764 15.3268 52.0002 12.1138 52C8.90079 51.9998 5.81948 50.5754 3.5477 48.0404C1.27593 45.5054 -0.000218409 42.0672 2.80377e-08 38.4824C0.000218465 34.8975 1.27678 31.4596 3.54887 28.9249L26.6789 2.74364C27.4575 1.87428 28.3819 1.18453 29.3994 0.713779C30.4169 0.243025 31.5075 0.00048343 32.609 7.21937e-07C33.7105 -0.000481986 34.8013 0.241104 35.8191 0.710966C36.8369 1.18083 37.7618 1.86976 38.541 2.73844C39.3201 3.60711 39.9383 4.63851 40.3603 5.77375C40.7822 6.90899 40.9996 8.12584 41 9.35481C41.0004 10.5838 40.7839 11.8008 40.3628 12.9364C39.9417 14.072 39.3242 15.104 38.5456 15.9733L15.4132 42.1442C14.9808 42.6272 14.4674 43.0104 13.9022 43.272C13.3371 43.5336 12.7313 43.6684 12.1194 43.6688C11.5075 43.6691 10.9016 43.535 10.3362 43.2741C9.77081 43.0132 9.257 42.6306 8.82412 42.1481C8.39125 41.6657 8.04778 41.0928 7.81333 40.4622C7.57888 39.8317 7.45805 39.1557 7.45772 38.4731C7.4574 37.7904 7.57759 37.1143 7.81144 36.4835C8.04529 35.8527 8.38821 35.2794 8.82063 34.7964L28.2234 12.7868C28.3084 12.6856 28.4107 12.6044 28.5242 12.548C28.6377 12.4916 28.7602 12.4611 28.8845 12.4584C29.0087 12.4556 29.1322 12.4805 29.2477 12.5318C29.3632 12.583 29.4683 12.6596 29.5569 12.7568C29.6454 12.8541 29.7157 12.9701 29.7635 13.0981C29.8112 13.2261 29.8356 13.3635 29.835 13.5022C29.8345 13.6408 29.8091 13.778 29.7604 13.9055C29.7117 14.0331 29.6406 14.1485 29.5513 14.2449L10.1438 36.2597C9.88378 36.549 9.67736 36.8926 9.53634 37.2709C9.39532 37.6492 9.32246 38.0547 9.32191 38.4644C9.32137 38.8741 9.39316 39.2799 9.53319 39.6587C9.67321 40.0374 9.87872 40.3817 10.138 40.6718C10.3973 40.9619 10.7052 41.1922 11.0442 41.3496C11.3833 41.5069 11.7468 41.5882 12.114 41.5888C12.4812 41.5894 12.8449 41.5093 13.1843 41.3531C13.5238 41.1969 13.8324 40.9676 14.0924 40.6783L37.2224 14.5074C38.4467 13.1432 39.1351 11.2923 39.1362 9.36178C39.1372 7.43129 38.451 5.57938 37.2283 4.21346C36.0056 2.84753 34.3466 2.07948 32.6164 2.07826C30.8861 2.07704 29.2263 2.84276 28.0021 4.20696L4.87205 30.3778C2.94873 32.522 1.86761 35.4309 1.86652 38.4644C1.86543 41.498 2.94445 44.4078 4.86623 46.5537C6.788 48.6996 9.39509 49.9058 12.114 49.9071C14.8329 49.9083 17.4408 48.7044 19.3641 46.5602L38.4664 25.2471C38.5538 25.1492 38.6578 25.0716 38.7723 25.019C38.8868 24.9664 39.0096 24.9399 39.1335 24.9408C39.2573 24.9418 39.3797 24.9703 39.4936 25.0247C39.6075 25.079 39.7105 25.1582 39.7966 25.2575Z" fill="black"/>
</svg>
