<svg width="16" height="18" viewBox="0 0 16 18" fill="none" xmlns="http://www.w3.org/2000/svg">
<path id="Vector" d="M10.678 2.81C10.898 3.25 11.028 3.75 11.028 4.28C11.018 6.05 9.628 7.5 7.868 7.55C7.78831 7.53999 7.70769 7.53999 7.628 7.55C6.77995 7.52146 5.9762 7.16438 5.38655 6.5542C4.7969 5.94402 4.46752 5.12853 4.468 4.28C4.468 2.47 5.928 1 7.748 1M14.48 14.149C12.6423 15.8381 10.236 16.7734 7.74 16.769C5.14 16.769 2.78 15.779 1 14.149C1.1 13.209 1.7 12.289 2.77 11.569C5.51 9.749 9.99 9.749 12.71 11.569C13.78 12.289 14.38 13.209 14.48 14.149Z" stroke="black" stroke-width="1.5" stroke-linecap="round" stroke-linejoin="round"/>
</svg>
